<svg width="1440" height="1024" viewBox="0 0 1440 1024" fill="none" xmlns="http://www.w3.org/2000/svg">
<rect width="1440" height="1024" fill="white"/>
<path d="M364.619 289.576C360.715 289.576 357.835 288.552 355.979 286.504C354.187 284.392 353.291 281.8 353.291 278.728C353.291 277.384 353.451 275.88 353.771 274.216C354.091 272.488 354.411 270.824 354.731 269.224C355.115 267.624 355.371 266.6 355.499 266.152C356.011 263.912 356.491 261.704 356.939 259.528C357.387 257.352 357.611 255.592 357.611 254.248C357.611 250.984 356.459 249.352 354.155 249.352C352.491 249.352 351.019 250.184 349.739 251.848C348.459 253.448 347.435 255.56 346.667 258.184L340.139 289H326.315L336.491 241H350.315L349.259 245.992C352.459 242.408 356.203 240.616 360.491 240.616C363.755 240.616 366.347 241.512 368.267 243.304C370.187 245.096 371.147 247.816 371.147 251.464C371.147 253.32 370.923 255.4 370.475 257.704C370.027 259.944 369.387 262.696 368.555 265.96C368.043 267.944 367.563 269.896 367.115 271.816C366.731 273.672 366.539 275.144 366.539 276.232C366.539 277.512 366.827 278.504 367.403 279.208C367.979 279.912 368.971 280.264 370.379 280.264C372.299 280.264 373.835 279.592 374.987 278.248C376.139 276.84 377.291 274.696 378.443 271.816H382.475C380.107 278.856 377.355 283.592 374.219 286.024C371.147 288.392 367.947 289.576 364.619 289.576ZM420.863 235.816C418.751 235.816 416.959 235.08 415.487 233.608C414.015 232.136 413.279 230.344 413.279 228.232C413.279 226.12 414.015 224.328 415.487 222.856C416.959 221.32 418.751 220.552 420.863 220.552C422.975 220.552 424.767 221.32 426.239 222.856C427.775 224.328 428.543 226.12 428.543 228.232C428.543 230.344 427.775 232.136 426.239 233.608C424.767 235.08 422.975 235.816 420.863 235.816ZM414.335 289.576C411.263 289.576 408.767 288.616 406.847 286.696C404.991 284.776 404.063 281.896 404.063 278.056C404.063 276.456 404.319 274.376 404.831 271.816L411.359 241H425.183L418.271 273.64C418.015 274.6 417.887 275.624 417.887 276.712C417.887 277.992 418.175 278.92 418.751 279.496C419.391 280.008 420.415 280.264 421.823 280.264C423.679 280.264 425.407 279.496 427.007 277.96C428.607 276.36 429.759 274.312 430.463 271.816H434.495C432.127 278.728 429.087 283.432 425.375 285.928C421.663 288.36 417.983 289.576 414.335 289.576ZM470.553 289.576C465.817 289.576 462.137 288.36 459.513 285.928C456.889 283.432 455.577 279.56 455.577 274.312C455.577 269.896 456.441 265.032 458.169 259.72C459.961 254.408 462.777 249.832 466.617 245.992C470.521 242.088 475.449 240.136 481.401 240.136C485.241 240.136 487.961 240.968 489.561 242.632C491.225 244.296 492.057 246.408 492.057 248.968C492.057 251.208 491.577 252.936 490.617 254.152C489.657 255.368 488.441 255.976 486.969 255.976C485.881 255.976 484.761 255.592 483.609 254.824C484.377 252.712 484.761 250.824 484.761 249.16C484.761 247.944 484.537 246.984 484.089 246.28C483.641 245.576 482.969 245.224 482.073 245.224C480.153 245.224 478.233 246.792 476.313 249.928C474.393 253.064 472.825 256.872 471.609 261.352C470.393 265.832 469.785 269.864 469.785 273.448C469.785 276.584 470.329 278.728 471.417 279.88C472.505 280.968 474.265 281.512 476.697 281.512C480.153 281.512 483.097 280.712 485.529 279.112C488.025 277.512 490.745 275.08 493.689 271.816H496.953C489.849 283.656 481.049 289.576 470.553 289.576ZM554.725 289.576C550.821 289.576 547.941 288.552 546.085 286.504C544.293 284.392 543.397 281.8 543.397 278.728C543.397 277.384 543.557 275.88 543.877 274.216C544.197 272.488 544.517 270.824 544.837 269.224C545.221 267.624 545.477 266.6 545.605 266.152C546.117 263.912 546.597 261.704 547.045 259.528C547.493 257.352 547.717 255.592 547.717 254.248C547.717 250.984 546.565 249.352 544.261 249.352C542.597 249.352 541.125 250.184 539.845 251.848C538.565 253.448 537.541 255.56 536.773 258.184L530.245 289H516.421L530.341 223.72L544.549 221.8L539.365 245.992C542.565 242.408 546.309 240.616 550.597 240.616C553.861 240.616 556.453 241.512 558.373 243.304C560.293 245.096 561.253 247.816 561.253 251.464C561.253 253.32 561.029 255.4 560.581 257.704C560.133 259.944 559.493 262.696 558.661 265.96C558.149 267.944 557.669 269.896 557.221 271.816C556.837 273.672 556.645 275.144 556.645 276.232C556.645 277.512 556.933 278.504 557.509 279.208C558.085 279.912 559.077 280.264 560.485 280.264C562.405 280.264 563.941 279.592 565.093 278.248C566.245 276.84 567.397 274.696 568.549 271.816H572.581C570.213 278.856 567.461 283.592 564.325 286.024C561.253 288.392 558.053 289.576 554.725 289.576ZM603.962 289.576C600.698 289.576 598.266 288.584 596.666 286.6C595.13 284.616 594.361 281.992 594.361 278.728C594.361 277.064 594.553 275.368 594.938 273.64L601.082 244.84H597.914L598.682 241H601.85L604.73 227.752L618.938 225.832C618.362 228.264 618.042 229.704 617.978 230.152C617.53 231.944 616.762 235.56 615.674 241H621.434L620.666 244.84H614.906L608.762 273.64C608.442 275.048 608.282 276.168 608.282 277C608.282 279.304 609.402 280.456 611.642 280.456C612.794 280.456 613.626 280.36 614.138 280.168C612.858 283.88 611.354 286.376 609.626 287.656C607.898 288.936 606.01 289.576 603.962 289.576ZM712.073 313C709.001 313 706.441 312.2 704.393 310.6C702.345 309 701.321 306.696 701.321 303.688C701.321 300.04 702.793 297.096 705.737 294.856C708.681 292.68 712.425 290.856 716.969 289.384L718.121 284.296C714.857 287.816 711.017 289.576 706.601 289.576C702.953 289.576 699.913 288.328 697.481 285.832C695.049 283.336 693.833 279.432 693.833 274.12C693.833 269.384 694.761 264.424 696.617 259.24C698.537 253.992 701.353 249.576 705.065 245.992C708.841 242.344 713.321 240.52 718.505 240.52C721.129 240.52 723.081 240.968 724.361 241.864C725.641 242.76 726.281 243.944 726.281 245.416V245.992L727.337 241H741.161L731.657 285.544C734.729 284.52 737.193 282.984 739.049 280.936C740.905 278.888 742.473 275.848 743.753 271.816H747.785C746.057 277.512 743.721 281.704 740.777 284.392C737.833 287.016 734.505 288.808 730.793 289.768L729.353 296.68C728.073 302.888 725.865 307.144 722.729 309.448C719.593 311.816 716.041 313 712.073 313ZM712.841 280.264C714.313 280.264 715.817 279.592 717.353 278.248C718.889 276.904 719.945 275.08 720.521 272.776L725.417 250.024C725.417 249.256 725.097 248.488 724.457 247.72C723.817 246.888 722.825 246.472 721.481 246.472C718.921 246.472 716.617 247.976 714.569 250.984C712.521 253.928 710.921 257.512 709.769 261.736C708.617 265.896 708.041 269.576 708.041 272.776C708.041 275.976 708.489 278.024 709.385 278.92C710.345 279.816 711.497 280.264 712.841 280.264ZM709.865 305.512C710.953 305.512 712.009 304.776 713.033 303.304C714.057 301.832 714.857 299.72 715.433 296.968L716.009 294.184C709.737 296.488 706.601 299.208 706.601 302.344C706.601 303.176 706.889 303.912 707.465 304.552C708.041 305.192 708.841 305.512 709.865 305.512ZM783.866 289.576C779.13 289.576 775.45 288.36 772.826 285.928C770.202 283.432 768.89 279.56 768.89 274.312C768.89 269.896 769.754 265.032 771.482 259.72C773.21 254.408 776.026 249.832 779.93 245.992C783.834 242.088 788.794 240.136 794.81 240.136C801.85 240.136 805.37 243.208 805.37 249.352C805.37 252.936 804.346 256.232 802.298 259.24C800.25 262.248 797.53 264.68 794.138 266.536C790.746 268.328 787.13 269.352 783.29 269.608C783.162 271.528 783.098 272.808 783.098 273.448C783.098 276.584 783.642 278.728 784.73 279.88C785.818 280.968 787.578 281.512 790.01 281.512C793.466 281.512 796.41 280.712 798.842 279.112C801.338 277.512 804.058 275.08 807.002 271.816H810.266C803.162 283.656 794.362 289.576 783.866 289.576ZM784.058 265C786.426 264.872 788.666 264.04 790.778 262.504C792.954 260.968 794.682 259.016 795.962 256.648C797.306 254.28 797.978 251.784 797.978 249.16C797.978 246.536 797.178 245.224 795.578 245.224C793.274 245.224 791.002 247.24 788.762 251.272C786.586 255.304 785.018 259.88 784.058 265ZM824.741 313C821.733 313 819.109 312.008 816.869 310.024C814.565 308.104 813.413 305.64 813.413 302.632C813.413 299.88 814.117 297.608 815.525 295.816C816.933 294.024 818.757 292.584 820.997 291.496C823.237 290.472 826.213 289.384 829.925 288.232L841.541 233.416C842.821 227.272 845.061 223.016 848.261 220.648C851.525 218.28 855.109 217.096 859.013 217.096C862.021 217.096 864.645 218.088 866.885 220.072C869.189 221.992 870.341 224.456 870.341 227.464C870.341 228.936 870.245 230.248 870.053 231.4H865.541C865.669 229.992 865.733 229.128 865.733 228.808C865.733 227.784 865.381 226.984 864.677 226.408C863.973 225.832 863.109 225.544 862.085 225.544C860.741 225.544 859.429 226.152 858.149 227.368C856.869 228.52 855.941 230.536 855.365 233.416L853.733 241H879.365L872.453 273.64C872.261 274.6 872.165 275.496 872.165 276.328C872.165 278.952 873.125 280.264 875.045 280.264C876.837 280.264 878.373 279.528 879.653 278.056C880.933 276.52 881.957 274.44 882.725 271.816L889.253 241H903.077L896.165 273.64C895.909 274.6 895.781 275.624 895.781 276.712C895.781 277.992 896.069 278.92 896.645 279.496C897.285 280.008 898.309 280.264 899.717 280.264C901.509 280.264 903.045 279.496 904.325 277.96C905.669 276.424 906.725 274.376 907.493 271.816H911.525C909.157 278.728 906.213 283.432 902.693 285.928C899.237 288.36 895.749 289.576 892.229 289.576C889.477 289.576 887.269 288.808 885.605 287.272C884.005 285.736 883.045 283.464 882.725 280.456C880.549 283.976 878.245 286.376 875.813 287.656C873.445 288.936 871.013 289.576 868.517 289.576C865.445 289.576 862.949 288.616 861.029 286.696C859.173 284.776 858.245 281.896 858.245 278.056C858.245 276.456 858.501 274.376 859.013 271.816L864.677 244.84H852.965L841.925 296.68C840.645 302.888 838.437 307.144 835.301 309.448C832.165 311.816 828.645 313 824.741 313ZM822.533 304.456C825.093 304.456 826.917 301.96 828.005 296.968L829.253 291.4C825.861 292.552 823.269 293.864 821.477 295.336C819.621 296.872 818.693 298.856 818.693 301.288C818.693 302.056 819.077 302.76 819.845 303.4C820.613 304.104 821.509 304.456 822.533 304.456ZM968.594 289.576C964.69 289.576 961.81 288.552 959.954 286.504C958.162 284.392 957.266 281.8 957.266 278.728C957.266 277.384 957.426 275.88 957.746 274.216C958.066 272.488 958.386 270.824 958.706 269.224C959.09 267.624 959.345 266.6 959.474 266.152C959.986 263.912 960.466 261.704 960.914 259.528C961.362 257.352 961.586 255.592 961.586 254.248C961.586 250.984 960.434 249.352 958.13 249.352C956.466 249.352 954.994 250.184 953.714 251.848C952.434 253.448 951.41 255.56 950.642 258.184L944.114 289H930.289L940.466 241H954.29L953.234 245.992C956.434 242.408 960.178 240.616 964.466 240.616C967.73 240.616 970.322 241.512 972.242 243.304C974.162 245.096 975.122 247.816 975.122 251.464C975.122 253.32 974.898 255.4 974.45 257.704C974.002 259.944 973.362 262.696 972.53 265.96C972.018 267.944 971.538 269.896 971.09 271.816C970.706 273.672 970.514 275.144 970.514 276.232C970.514 277.512 970.802 278.504 971.378 279.208C971.954 279.912 972.946 280.264 974.354 280.264C976.274 280.264 977.81 279.592 978.962 278.248C980.114 276.84 981.266 274.696 982.417 271.816H986.45C984.082 278.856 981.33 283.592 978.194 286.024C975.122 288.392 971.922 289.576 968.594 289.576ZM1020.33 289.576C1016.68 289.576 1013.64 288.328 1011.21 285.832C1008.77 283.336 1007.56 279.432 1007.56 274.12C1007.56 269.384 1008.49 264.424 1010.34 259.24C1012.26 253.992 1015.08 249.576 1018.79 245.992C1022.57 242.344 1027.05 240.52 1032.23 240.52C1034.85 240.52 1036.81 240.968 1038.09 241.864C1039.37 242.76 1040.01 243.944 1040.01 245.416V245.8L1044.71 223.72L1058.92 221.8L1047.88 273.64C1047.62 274.6 1047.49 275.624 1047.49 276.712C1047.49 277.992 1047.78 278.92 1048.36 279.496C1049 280.008 1050.02 280.264 1051.43 280.264C1053.22 280.264 1054.76 279.496 1056.04 277.96C1057.38 276.424 1058.44 274.376 1059.21 271.816H1063.24C1059.33 283.272 1052.9 289 1043.94 289C1041.32 289 1039.17 288.296 1037.51 286.888C1035.91 285.48 1034.92 283.432 1034.53 280.744C1032.87 283.304 1030.85 285.416 1028.49 287.08C1026.18 288.744 1023.46 289.576 1020.33 289.576ZM1026.57 280.264C1028.1 280.264 1029.64 279.56 1031.17 278.152C1032.77 276.744 1033.86 274.792 1034.44 272.296V271.816L1039.14 249.832C1038.57 247.592 1037.25 246.472 1035.21 246.472C1032.65 246.472 1030.34 247.976 1028.29 250.984C1026.25 253.928 1024.65 257.512 1023.49 261.736C1022.34 265.896 1021.77 269.576 1021.77 272.776C1021.77 275.976 1022.21 278.024 1023.11 278.92C1024.07 279.816 1025.22 280.264 1026.57 280.264ZM1099.37 289.576C1094.64 289.576 1090.96 288.36 1088.33 285.928C1085.71 283.432 1084.4 279.56 1084.4 274.312C1084.4 269.896 1085.26 265.032 1086.99 259.72C1088.72 254.408 1091.53 249.832 1095.44 245.992C1099.34 242.088 1104.3 240.136 1110.32 240.136C1117.36 240.136 1120.88 243.208 1120.88 249.352C1120.88 252.936 1119.85 256.232 1117.8 259.24C1115.76 262.248 1113.04 264.68 1109.64 266.536C1106.25 268.328 1102.64 269.352 1098.8 269.608C1098.67 271.528 1098.6 272.808 1098.6 273.448C1098.6 276.584 1099.15 278.728 1100.24 279.88C1101.32 280.968 1103.08 281.512 1105.52 281.512C1108.97 281.512 1111.92 280.712 1114.35 279.112C1116.84 277.512 1119.56 275.08 1122.51 271.816H1125.77C1118.67 283.656 1109.87 289.576 1099.37 289.576ZM1099.56 265C1101.93 264.872 1104.17 264.04 1106.28 262.504C1108.46 260.968 1110.19 259.016 1111.47 256.648C1112.81 254.28 1113.48 251.784 1113.48 249.16C1113.48 246.536 1112.68 245.224 1111.08 245.224C1108.78 245.224 1106.51 247.24 1104.27 251.272C1102.09 255.304 1100.52 259.88 1099.56 265ZM1181.91 289.576C1178.52 289.576 1176.06 288.552 1174.52 286.504C1172.98 284.456 1172.22 281.864 1172.22 278.728C1172.22 277.384 1172.38 275.88 1172.7 274.216C1173.02 272.488 1173.34 270.824 1173.66 269.224C1174.04 267.624 1174.3 266.6 1174.42 266.152C1174.94 263.912 1175.42 261.704 1175.86 259.528C1176.31 257.352 1176.54 255.592 1176.54 254.248C1176.54 250.984 1175.38 249.352 1173.08 249.352C1171.42 249.352 1169.94 250.184 1168.66 251.848C1167.38 253.448 1166.36 255.56 1165.59 258.184L1159.06 289H1145.24L1155.42 241H1169.24L1168.18 245.992C1171.38 242.408 1175.13 240.616 1179.42 240.616C1182.68 240.616 1185.27 241.512 1187.19 243.304C1189.11 245.096 1190.07 247.816 1190.07 251.464C1190.07 253.32 1189.85 255.4 1189.4 257.704C1188.95 259.944 1188.31 262.696 1187.48 265.96C1186.97 267.944 1186.49 269.896 1186.04 271.816C1185.66 273.672 1185.46 275.144 1185.46 276.232C1185.46 277.512 1185.75 278.504 1186.33 279.208C1186.9 279.912 1187.9 280.264 1189.3 280.264C1190.84 280.264 1191.9 280.072 1192.47 279.688C1192.09 282.952 1190.9 285.416 1188.92 287.08C1187 288.744 1184.66 289.576 1181.91 289.576Z" fill="#343434"/>
<path d="M665.812 525.438H656.344V543.719H650.625V525.438H624.375V520.844L654 473.312H656.344V521.031H665.812V525.438ZM650.531 521.031V485.031L628.312 521.031H650.531ZM739.838 509.031C739.838 517.719 738.556 525.281 735.994 531.719C732.431 540.531 726.931 544.938 719.494 544.938C712.119 544.938 706.65 540.531 703.088 531.719C700.463 525.219 699.15 517.656 699.15 509.031C699.15 500.531 700.463 493 703.088 486.438C706.65 477.562 712.119 473.125 719.494 473.125C726.931 473.125 732.431 477.562 735.994 486.438C738.556 492.875 739.838 500.406 739.838 509.031ZM733.744 509.031C733.744 502.219 732.869 495.688 731.119 489.438C728.556 480.188 724.681 475.562 719.494 475.562C714.369 475.562 710.525 480.188 707.963 489.438C706.15 495.75 705.244 502.281 705.244 509.031C705.244 516.219 706.15 522.906 707.963 529.094C710.463 538.031 714.306 542.5 719.494 542.5C724.744 542.5 728.619 538 731.119 529C732.869 522.875 733.744 516.219 733.744 509.031ZM814.613 525.438H805.144V543.719H799.425V525.438H773.175V520.844L802.8 473.312H805.144V521.031H814.613V525.438ZM799.331 521.031V485.031L777.113 521.031H799.331Z" fill="#343434"/>
</svg>
